<!DOCTYPE svg PUBLIC "-//W3C//DTD SVG 1.1//EN" "http://www.w3.org/Graphics/SVG/1.1/DTD/svg11.dtd">
<!-- Uploaded to: SVG Repo, www.svgrepo.com, Transformed by: SVG Repo Mixer Tools -->
<svg width="208px" height="208px" viewBox="-2.4 -2.4 28.80 28.80" fill="none" xmlns="http://www.w3.org/2000/svg" stroke="#000000">
<g id="SVGRepo_bgCarrier" stroke-width="0" transform="translate(0,0), scale(1)">
<rect x="-2.4" y="-2.4" width="28.80" height="28.80" rx="14.4" fill="#ffffff" strokewidth="0"/>
</g>
<g id="SVGRepo_tracerCarrier" stroke-linecap="round" stroke-linejoin="round"/>
<g id="SVGRepo_iconCarrier"> <path opacity="0.15" d="M4 7H20V18C20 19.1046 19.1046 20 18 20H6C4.89543 20 4 19.1046 4 18V7Z" fill="#75ff98"/> <path d="M4 7H20M4 7V18C4 19.1046 4.89543 20 6 20H18C19.1046 20 20 19.1046 20 18V7M4 7L6 3H18L20 7M15 11C15 12.6569 13.6569 14 12 14C10.3431 14 9 12.6569 9 11" stroke="#75ff98" stroke-width="2.112" stroke-linecap="round" stroke-linejoin="round"/> </g>
</svg>